<svg width="104" height="104" viewBox="0 0 104 104" fill="none" xmlns="http://www.w3.org/2000/svg">
<circle cx="52" cy="52" r="51.9" fill="#1D294E" stroke="white" stroke-width="0.2"/>
<path d="M39.7811 63.2518L47.4057 52.2322L60.3583 67.4971L51.9988 62.9808L46.9464 64.2453L39.7811 63.2518Z" fill="#4995BB"/>
<path d="M86.9993 71.2912L71.5663 52.865L64.1255 54.2199L67.4325 52.6844L61.737 47.9875L62.1045 46.0003L58.2463 37.9615L51.6322 32.7226L47.3147 32L40.1493 41.3035L37.7609 49.4327L26.1863 56.478L17 71.2912L29.034 58.0135L41.8029 52.2327L42.2622 41.7551L48.1414 33.8969L50.6217 37.8711L53.102 39.3163L50.1624 42.2067L48.5089 49.523L63.5743 66.1428L73.9548 62.8007L86.9993 71.2912Z" fill="#94CCE8"/>
<path d="M26.2786 56.2964L38.68 50.7866L40.2417 41.0315L37.8532 49.1607L26.2786 56.2964Z" fill="#327EA5"/>
<path d="M47.4062 52.2334L52.0912 62.982L60.4508 67.4983L47.4062 52.2334Z" fill="#327EA5"/>
<path d="M71.5671 52.8633L74.2312 62.799L87 71.3798L71.5671 52.8633Z" fill="#327EA5"/>
<path d="M58.0269 41.9049L52.7908 39.1049L49.8511 41.9953L48.1976 49.3115L49.7593 51.0277L55.3629 57.2601L55.5466 44.0727L58.0269 41.9049Z" fill="#327EA5"/>
</svg>
