<svg width="1765" height="1579" viewBox="0 0 1765 1579" fill="none" xmlns="http://www.w3.org/2000/svg">
<circle cx="882.422" cy="696.422" r="647.922" stroke="white" stroke-opacity="0.04"/>
<circle cx="882.71" cy="696.549" r="389.395" transform="rotate(3.59079 882.71 696.549)" stroke="white" stroke-opacity="0.08" stroke-dasharray="40 40"/>
<path d="M825.207 410.104C837.567 407.665 850.207 406.004 863.074 405.174L863.107 405.673C869.414 405.266 875.777 405.06 882.188 405.06C888.598 405.06 894.961 405.266 901.268 405.673L901.301 405.174C914.168 406.004 926.808 407.665 939.168 410.104L939.071 410.594C951.662 413.08 963.963 416.374 975.915 420.42L976.075 419.947C988.216 424.057 999.998 428.943 1011.36 434.544L1011.14 434.993C1022.59 440.638 1033.62 447.011 1044.16 454.052L1044.44 453.636C1055.06 460.726 1065.18 468.492 1074.75 476.873L1074.43 477.249C1084 485.631 1093.02 494.627 1101.42 504.178L1101.79 503.847C1110.2 513.401 1117.99 523.508 1125.1 534.106L1124.69 534.385C1131.75 544.913 1138.15 555.927 1143.81 567.366L1144.26 567.144C1149.88 578.501 1154.79 590.275 1158.92 602.408L1158.44 602.569C1162.51 614.517 1165.82 626.813 1168.31 639.401L1168.8 639.304C1171.26 651.662 1172.92 664.301 1173.76 677.167L1173.26 677.199C1173.67 683.507 1173.88 689.869 1173.88 696.28C1173.88 702.691 1173.67 709.053 1173.26 715.361L1173.76 715.393C1172.92 728.259 1171.26 740.898 1168.8 753.256L1168.31 753.159C1165.82 765.747 1162.51 778.043 1158.44 789.991L1158.92 790.152C1154.79 802.285 1149.88 814.06 1144.26 825.416L1143.81 825.194C1138.15 836.633 1131.75 847.647 1124.69 858.175L1125.1 858.454C1117.99 869.052 1110.2 879.159 1101.79 888.713L1101.42 888.382C1093.02 897.933 1084 906.929 1074.43 915.311L1074.75 915.687C1065.18 924.068 1055.06 931.834 1044.44 938.924L1044.16 938.508C1033.62 945.549 1022.59 951.922 1011.14 957.567L1011.36 958.015C999.999 963.617 988.216 968.503 976.075 972.613L975.915 972.14C963.963 976.186 951.662 979.481 939.071 981.965L939.168 982.456C926.808 984.895 914.168 986.556 901.301 987.386L901.268 986.887C894.961 987.294 888.598 987.5 882.188 987.5C875.777 987.5 869.414 987.294 863.107 986.887L863.074 987.386C850.207 986.556 837.567 984.895 825.207 982.456L825.304 981.965C812.713 979.48 800.412 976.186 788.46 972.14L788.3 972.613C776.159 968.503 764.377 963.617 753.011 958.015L753.233 957.567C741.781 951.922 730.753 945.549 720.211 938.508L719.933 938.924C709.317 931.834 699.192 924.068 689.621 915.687L689.95 915.311C680.378 906.929 671.359 897.933 662.957 888.382L662.582 888.713C654.177 879.159 646.387 869.052 639.275 858.454L639.69 858.175C632.624 847.647 626.228 836.633 620.563 825.194L620.115 825.416C614.49 814.059 609.585 802.285 605.457 790.152L605.93 789.991C601.866 778.043 598.557 765.747 596.061 753.159L595.57 753.256C593.119 740.898 591.451 728.259 590.617 715.393L591.116 715.361C590.707 709.053 590.5 702.691 590.5 696.28C590.5 689.869 590.707 683.507 591.116 677.199L590.617 677.167C591.451 664.301 593.119 651.662 595.57 639.304L596.061 639.401C598.557 626.813 601.866 614.517 605.93 602.569L605.457 602.408C609.585 590.275 614.49 578.5 620.115 567.144L620.563 567.366C626.228 555.927 632.624 544.913 639.69 534.385L639.275 534.106C646.387 523.508 654.177 513.401 662.582 503.847L662.957 504.178C671.359 494.627 680.378 485.631 689.95 477.249L689.621 476.873C699.192 468.492 709.317 460.726 719.933 453.636L720.211 454.052C730.753 447.011 741.781 440.638 753.232 434.993L753.011 434.545C764.376 428.943 776.159 424.057 788.3 419.947L788.46 420.42C800.412 416.374 812.713 413.079 825.304 410.594L825.207 410.104Z" stroke="white" stroke-opacity="0.04" stroke-dasharray="40 40"/>
<circle cx="882.393" cy="696.607" r="518.893" transform="rotate(-90 882.393 696.607)" stroke="white" stroke-opacity="0.08" stroke-dasharray="40 40"/>
<circle cx="882.5" cy="696.5" r="753" transform="rotate(-90 882.5 696.5)" stroke="white" stroke-opacity="0.05" stroke-dasharray="40 40"/>
<circle cx="882.5" cy="696.5" r="882" transform="rotate(-90 882.5 696.5)" stroke="white" stroke-opacity="0.05" stroke-dasharray="40 40"/>
</svg>
